<svg id="visual" viewBox="0 0 960 540" width="960" height="540" xmlns="http://www.w3.org/2000/svg" xmlns:xlink="http://www.w3.org/1999/xlink" version="1.1"><rect x="0" y="0" width="960" height="540" fill="#fffdf5"></rect><defs><linearGradient id="grad1_0" x1="43.8%" y1="0%" x2="100%" y2="100%"><stop offset="14.444444444444446%" stop-color="#cb546a" stop-opacity="1"></stop><stop offset="85.55555555555554%" stop-color="#cb546a" stop-opacity="1"></stop></linearGradient></defs><defs><linearGradient id="grad1_1" x1="43.8%" y1="0%" x2="100%" y2="100%"><stop offset="14.444444444444446%" stop-color="#cb546a" stop-opacity="1"></stop><stop offset="85.55555555555554%" stop-color="#fffdf5" stop-opacity="1"></stop></linearGradient></defs><defs><linearGradient id="grad2_0" x1="0%" y1="0%" x2="56.3%" y2="100%"><stop offset="14.444444444444446%" stop-color="#cb546a" stop-opacity="1"></stop><stop offset="85.55555555555554%" stop-color="#cb546a" stop-opacity="1"></stop></linearGradient></defs><defs><linearGradient id="grad2_1" x1="0%" y1="0%" x2="56.3%" y2="100%"><stop offset="14.444444444444446%" stop-color="#fffdf5" stop-opacity="1"></stop><stop offset="85.55555555555554%" stop-color="#cb546a" stop-opacity="1"></stop></linearGradient></defs><g transform="translate(960, 0)"><path d="M0 405C-54.3 400.7 -108.7 396.4 -155 374.2C-201.3 352 -239.6 311.9 -271.5 271.5C-303.4 231.1 -329 190.4 -350.2 145C-371.3 99.7 -388.2 49.9 -405 0L0 0Z" fill="#e3af91"></path><path d="M0 202.5C-27.2 200.3 -54.3 198.2 -77.5 187.1C-100.7 176 -119.8 156 -135.8 135.8C-151.7 115.6 -164.5 95.2 -175.1 72.5C-185.7 49.9 -194.1 24.9 -202.5 0L0 0Z" fill="#cb546a"></path></g><g transform="translate(0, 540)"><path d="M0 -405C55.7 -402 111.4 -399 155 -374.2C198.6 -349.3 230.2 -302.6 262.3 -262.3C294.5 -222 327.2 -188.1 351.1 -145.4C374.9 -102.8 390 -51.4 405 0L0 0Z" fill="#e3af91"></path><path d="M0 -202.5C27.8 -201 55.7 -199.5 77.5 -187.1C99.3 -174.7 115.1 -151.3 131.2 -131.2C147.2 -111 163.6 -94 175.5 -72.7C187.5 -51.4 195 -25.7 202.5 0L0 0Z" fill="#cb546a"></path></g></svg>