<svg id="visual" viewBox="0 0 900 600" width="900" height="600" xmlns="http://www.w3.org/2000/svg" xmlns:xlink="http://www.w3.org/1999/xlink" version="1.1"><rect x="0" y="0" width="900" height="600" fill="#fff9f0"></rect><path d="M0 194L30 200.8C60 207.7 120 221.3 180 230.3C240 239.3 300 243.7 360 233.8C420 224 480 200 540 202C600 204 660 232 720 238.2C780 244.3 840 228.7 870 220.8L900 213L900 601L870 601C840 601 780 601 720 601C660 601 600 601 540 601C480 601 420 601 360 601C300 601 240 601 180 601C120 601 60 601 30 601L0 601Z" fill="#ffd899"></path><path d="M0 307L30 318.2C60 329.3 120 351.7 180 347.2C240 342.7 300 311.3 360 307.8C420 304.3 480 328.7 540 331.7C600 334.7 660 316.3 720 311.7C780 307 840 316 870 320.5L900 325L900 601L870 601C840 601 780 601 720 601C660 601 600 601 540 601C480 601 420 601 360 601C300 601 240 601 180 601C120 601 60 601 30 601L0 601Z" fill="#ed9572"></path><path d="M0 461L30 467.7C60 474.3 120 487.7 180 490.5C240 493.3 300 485.7 360 471.3C420 457 480 436 540 427.2C600 418.3 660 421.7 720 431.7C780 441.7 840 458.3 870 466.7L900 475L900 601L870 601C840 601 780 601 720 601C660 601 600 601 540 601C480 601 420 601 360 601C300 601 240 601 180 601C120 601 60 601 30 601L0 601Z" fill="#ca5369"></path></svg>